<?xml version="1.0" encoding="UTF-8"?>
<svg id="Layer_2" xmlns="http://www.w3.org/2000/svg" viewBox="0 0 2700 2700">
  <defs>
    <style>
      .cls-1 {
        fill: #4f8a84;
      }

      .cls-2 {
        fill: #f27e2b;
      }

      .cls-3 {
        fill: #ffa05f;
      }

      .cls-4 {
        fill: #4eacf9;
      }

      .cls-5 {
        fill: #ff31b1;
      }

      .cls-6 {
        fill: #218bf4;
      }

      .cls-7 {
        fill: #cf0279;
      }

      .cls-8 {
        fill: #1b1f2a;
      }

      .cls-9 {
        fill: #76bca0;
      }
    </style>
  </defs>
  <circle class="cls-8" cx="1350" cy="1351.75" r="1065.8"/>
  <g>
    <polygon class="cls-3" points="1752.11 1149.24 1547.75 1156.61 1657.3 1357.29 1752.11 1149.24"/>
    <polygon class="cls-3" points="1657.3 1357.29 1861.66 1349.92 1752.11 1149.24 1657.3 1357.29"/>
    <polygon class="cls-3" points="1956.47 1141.88 1752.11 1149.24 1861.66 1349.92 1956.47 1141.88"/>
    <polygon class="cls-2" points="1752.11 1149.24 1956.47 1141.88 1846.92 941.2 1752.11 1149.24"/>
    <polygon class="cls-2" points="1452.94 1364.66 1657.3 1357.29 1547.75 1156.61 1452.94 1364.66"/>
  </g>
  <g>
    <polygon class="cls-5" points="1180.34 1696.21 1194.38 1492.2 1391.37 1608.24 1180.34 1696.21"/>
    <polygon class="cls-5" points="1391.37 1608.24 1377.34 1812.25 1180.34 1696.21 1391.37 1608.24"/>
    <polygon class="cls-5" points="1166.31 1900.23 1180.34 1696.21 1377.34 1812.25 1166.31 1900.23"/>
    <polygon class="cls-7" points="1180.34 1696.21 1166.31 1900.23 969.31 1784.19 1180.34 1696.21"/>
    <polygon class="cls-7" points="1405.41 1404.23 1391.37 1608.24 1194.38 1492.2 1405.41 1404.23"/>
  </g>
  <g>
    <polygon class="cls-4" points="947.52 1455.52 1151.52 1441.26 1035.26 1244.39 947.52 1455.52"/>
    <polygon class="cls-4" points="1035.26 1244.39 831.26 1258.66 947.52 1455.52 1035.26 1244.39"/>
    <polygon class="cls-4" points="743.53 1469.79 947.52 1455.52 831.26 1258.66 743.53 1469.79"/>
    <polygon class="cls-6" points="947.52 1455.52 743.53 1469.79 859.79 1666.65 947.52 1455.52"/>
    <polygon class="cls-6" points="1239.25 1230.13 1035.26 1244.39 1151.52 1441.26 1239.25 1230.13"/>
  </g>
  <g>
    <polygon class="cls-9" points="1524.09 910.08 1500.71 1113.23 1309.25 988.28 1524.09 910.08"/>
    <polygon class="cls-9" points="1309.25 988.28 1332.63 785.12 1524.09 910.08 1309.25 988.28"/>
    <polygon class="cls-9" points="1547.47 706.92 1524.09 910.08 1332.63 785.12 1547.47 706.92"/>
    <polygon class="cls-1" points="1524.09 910.08 1547.47 706.92 1738.94 831.88 1524.09 910.08"/>
    <polygon class="cls-1" points="1285.87 1191.43 1309.25 988.28 1500.71 1113.23 1285.87 1191.43"/>
  </g>
</svg>